<?xml version="1.0" encoding="UTF-8" standalone="no"?>
<!-- Created with Inkscape (http://www.inkscape.org/) -->

<svg
   width="320"
   height="128"
   viewBox="0 0 320 128"
   version="1.1"
   id="svg1"
   xml:space="preserve"
   xmlns="http://www.w3.org/2000/svg"
   xmlns:svg="http://www.w3.org/2000/svg"><defs
     id="defs1"><linearGradient
       id="swatch47"><stop
         style="stop-color:#413f3b;stop-opacity:1;"
         offset="0"
         id="stop47" /></linearGradient><linearGradient
       id="swatch9"><stop
         style="stop-color:#000000;stop-opacity:1;"
         offset="0"
         id="stop9" /></linearGradient></defs><g
     id="layer2"
     style="display:inline"
     transform="translate(-517.00702,-128.5)"><g
       id="g53"
       transform="matrix(1.0025271,0,0,0.99334598,-2.6094527,-126.78992)"
       style="display:inline"><path
         id="path172"
         style="display:inline;opacity:1;mix-blend-mode:normal;fill:#383634;fill-opacity:0.541176;fill-rule:nonzero;stroke:none;stroke-width:1;stroke-dasharray:none;stroke-dashoffset:0;stroke-opacity:0;paint-order:stroke fill markers"
         d="m 522.90625,257 a 34.533379,34.533379 0 0 0 -4.59961,17.20117 34.533379,34.533379 0 0 0 34.53516,34.53321 34.533379,34.533379 0 0 0 19.09179,-5.79883 l 134.02735,55.72461 a 34.294678,34.294678 0 0 0 33.49609,27.19726 34.294678,34.294678 0 0 0 34.29492,-34.29492 34.294678,34.294678 0 0 0 -0.0215,-0.85352 l 41.76367,-30.42187 a 46.834522,46.834522 0 0 0 2.09766,0.15039 46.834522,46.834522 0 0 0 19.9082,-4.49414 V 298.10938 A 31.834522,31.834522 0 0 1 817.5918,305.4375 31.834522,31.834522 0 0 1 785.75781,273.60352 31.834522,31.834522 0 0 1 790.55078,257 H 774.0957 a 46.834522,46.834522 0 0 0 -3.33789,16.60352 46.834522,46.834522 0 0 0 0.0918,1.29296 l -29.64063,42.41797 a 34.294678,34.294678 0 0 0 -1.75195,-0.0469 34.294678,34.294678 0 0 0 -18.64062,5.75976 L 586.57227,267.21094 A 34.533379,34.533379 0 0 0 582.48438,257 h -9.26563 a 26.755203,26.755203 0 0 1 3.98242,6.31445 L 562.01172,257 h -17.39649 c -3.95646,1.98387 -7.2827,5.27485 -9.12304,9.70117 l -0.125,0.30274 c -4.07086,9.79104 0.53317,20.95062 10.32422,25.02148 l 16.96875,7.05469 A 26.755203,26.755203 0 0 1 552.8418,300.95703 26.755203,26.755203 0 0 1 526.08594,274.20117 26.755203,26.755203 0 0 1 532.67188,257 Z m 278.69727,0 A 23.334524,23.334524 0 0 0 794.25781,273.60352 23.334524,23.334524 0 0 0 817.5918,296.9375 23.334524,23.334524 0 0 0 837.5,285.29492 V 261.91211 A 23.334524,23.334524 0 0 0 833.58008,257 Z m -62.14649,68.01758 a 26.544678,26.544678 0 0 1 26.54492,26.54492 26.544678,26.544678 0 0 1 -26.54492,26.54492 26.544678,26.544678 0 0 1 -24.0957,-15.53906 l 16.15429,6.7168 c 9.79108,4.07083 20.95063,-0.53318 25.02149,-10.32422 l 0.125,-0.30274 c 4.07086,-9.79104 -0.53513,-20.95065 -10.32617,-25.02148 l -16.23047,-6.74805 a 26.544678,26.544678 0 0 1 9.35156,-1.87109 z" /></g></g></svg>
